<svg width="920" height="700" viewBox="0 0 920 700" fill="none" xmlns="http://www.w3.org/2000/svg">
<defs>
  <filter id="shadow" x="0" y="0" width="920" height="700" filterUnits="userSpaceOnUse"><feDropShadow dx="0" dy="34" stdDeviation="35" flood-color="#073828" flood-opacity=".18"/></filter>
  <linearGradient id="g1" x1="160" y1="120" x2="760" y2="620"><stop stop-color="#fffdf4"/><stop offset="1" stop-color="#eaf8f1"/></linearGradient>
  <linearGradient id="leaf" x1="0" x2="1"><stop stop-color="#0d8a57"/><stop offset="1" stop-color="#78d64b"/></linearGradient>
  <linearGradient id="orange" x1="0" x2="1"><stop stop-color="#ffb23f"/><stop offset="1" stop-color="#f05a1d"/></linearGradient>
</defs>
<rect x="110" y="56" width="690" height="560" rx="72" fill="url(#g1)" filter="url(#shadow)"/>
<circle cx="697" cy="170" r="78" fill="#ffe1a8" opacity=".78"/>
<circle cx="232" cy="205" r="98" fill="#dbf8e8" opacity=".9"/>
<path d="M242 432c36 78 105 122 213 122s191-45 229-122H242Z" fill="#a46b28"/>
<path d="M211 389c8-30 34-50 66-50h357c33 0 61 22 69 54l13 53H197l14-57Z" fill="#c98936"/>
<path d="M246 409h420M273 366l31 82M369 360l16 88M460 358v91M555 360l-20 88M642 367l-33 80" stroke="#8b551d" stroke-width="18" stroke-linecap="round" opacity=".55"/>
<circle cx="325" cy="339" r="48" fill="url(#orange)"/>
<circle cx="395" cy="323" r="54" fill="#ef3d25"/>
<circle cx="477" cy="318" r="59" fill="#f8cc2d"/>
<circle cx="566" cy="333" r="52" fill="#5cbf4a"/>
<circle cx="633" cy="346" r="44" fill="#e53827"/>
<path d="M299 275c-46-52-42-112 8-144 44 43 42 105-8 144Z" fill="url(#leaf)"/>
<path d="M389 255c-24-70 1-119 58-136 31 59 9 112-58 136Z" fill="url(#leaf)"/>
<path d="M585 277c34-66 88-85 139-50-19 63-75 82-139 50Z" fill="url(#leaf)"/>
<path d="M525 280c-17-73 14-118 72-130 25 62-3 112-72 130Z" fill="#2a9f4b"/>
<rect x="290" y="470" width="330" height="76" rx="25" fill="#073828"/>
<text x="455" y="519" text-anchor="middle" font-size="33" font-weight="900" fill="white" font-family="Inter,Arial">MealSaver</text>
<path d="M230 165c72-72 196-100 313-65 106 31 174 109 188 202" stroke="#0b8f5a" stroke-width="16" stroke-linecap="round" opacity=".25"/>
<path d="M711 287l21 27 25-24" stroke="#0b8f5a" stroke-width="18" stroke-linecap="round" stroke-linejoin="round" opacity=".45"/>
</svg>
